<?xml version="1.0" standalone="no"?><!DOCTYPE svg PUBLIC "-//W3C//DTD SVG 1.1//EN" "http://www.w3.org/Graphics/SVG/1.1/DTD/svg11.dtd"><svg t="1588989586752" class="icon" viewBox="0 0 1028 1024" version="1.1" xmlns="http://www.w3.org/2000/svg" p-id="6948" xmlns:xlink="http://www.w3.org/1999/xlink" width="128.5" height="128"><defs><style type="text/css"></style></defs><path d="M233.270037 578.492911a76.304024 76.304024 0 0 0-28.677711 41.696188 86.589084 86.589084 0 0 0 22.654928 79.408073 150.615896 150.615896 0 0 0 91.129335 38.592138 241.791561 241.791561 0 0 0 146.816911-50.591374 324.303684 324.303684 0 0 0 70.049596-69.493647 432.945418 432.945418 0 0 0-211.631319-60.783776 209.685496 209.685496 0 0 0-90.202753 21.172398z m749.373155 135.00299a511.982858 511.982858 0 1 0-56.382512 99.329586c-87.561995-43.549352-231.923463-115.220466-320.875331-158.538172a395.696823 395.696823 0 0 1-176.050571 117.953882 253.188519 253.188519 0 0 1-126.617424 9.729111 167.711334 167.711334 0 0 1-89.971107-47.487325 169.657156 169.657156 0 0 1-27.056193-37.619228c0.694936 1.899493 1.204557 3.05772 1.204556 3.057721a91.129335 91.129335 0 0 1-7.644301-19.411892 85.75516 85.75516 0 0 1-3.335695-18.068348 93.399461 93.399461 0 0 1 0-12.972148 93.816423 93.816423 0 0 1 1.667848-23.952143 122.494134 122.494134 0 0 1 34.839481-65.509344 204.311321 204.311321 0 0 1 148.253113-50.359729 781.525548 781.525548 0 0 1 210.843723 48.22859 750.531382 750.531382 0 0 0 41.696188-120.455654h-305.401412v-32.939988h156.823996v-66.25061h-189.949301v-32.801001h189.949301v-66.018964c0-9.26582 1.806835-16.493159 16.493159-16.493159h74.126556v82.512123h206.349801v32.801001h-206.349801v66.25061h165.070575a647.634456 647.634456 0 0 1-68.381748 183.463227c115.127808 41.047581 276.955346 104.333128 330.697099 125.551854z" fill="#1296db" p-id="6949"></path></svg>